<?xml version='1.0' encoding='utf-8'?>
<svg xmlns="http://www.w3.org/2000/svg" viewBox="65 35 220 100" role="img"><style>.st13{fill:#f05a29}</style><g>
        <path class="st13" d="M79.59,72.38c0-.79.1-1.55.29-2.27-.6.93-1.07,1.96-1.39,3.04-.09.31-.72,2.36-.75,4.19-.03,1.99.15,4.97,2.41,7.88,3.32,4.28,9.37,3.92,9.98,3.87,8.38-.73,16.77-1.45,25.15-2.18l-25.62-4.78c-6.98-1.21-10.07-4.75-10.07-9.74" />
        <path class="st13" d="M92.76,64.11l-1.75.05-2.99.09h-.07c-.95.16-1.87.42-2.74.78-2.04,1-3.59,2.86-4.13,5.13-.71,3.02.01,6.26,3.06,8.06h0c.49-3.77,3.7-3.84,3.7-3.84l7.6-.02h1.64s4.76-.02,4.76-.02l16.37-.05h0c1.46-5.5-2.79-10.86-8.48-10.69l-16.99.51Z" />
        <path class="st13" d="M82.19,93.68c-4.51,2.93-6.93,11.05-7.21,12.5-1.54,5.23-2.54,8.62-4.09,13.85h0c6.85,0,12.88-4.51,14.82-11.07l.17-.58c.09-.55,1.62-5.68,3.71-7.34,1.81-1.44,4.16-1.6,4.79-1.61l7.51-.31c6.33-.26,11.76-4.61,13.39-10.74h0s-26.43,2.55-26.43,2.55c-1.6.27-4.06,1.03-6.67,2.73" />
        <g>
          <path class="st13" d="M134,115.52c-.33.25-.67.46-1.04.64-.37.18-.77.31-1.2.41-.43.1-.9.15-1.4.15-.83,0-1.59-.15-2.3-.46-.71-.31-1.31-.73-1.83-1.26-.51-.53-.91-1.17-1.2-1.89-.29-.73-.43-1.5-.43-2.33v-.03c0-.82.15-1.59.44-2.31.29-.73.69-1.36,1.21-1.91.51-.55,1.12-.98,1.83-1.29.71-.31,1.48-.47,2.31-.47.52,0,.99.04,1.4.13.42.09.81.21,1.17.38.36.17.69.36,1.01.59.31.23.62.48.92.75l-.61.63c-.25-.24-.52-.47-.79-.68-.28-.21-.57-.39-.88-.54-.31-.15-.66-.27-1.02-.36-.37-.09-.77-.13-1.2-.13-.69,0-1.34.13-1.93.4-.6.26-1.11.63-1.55,1.1-.44.47-.78,1.02-1.02,1.64-.25.63-.37,1.31-.37,2.03v.03c0,.73.13,1.41.38,2.04.25.63.6,1.18,1.03,1.65.44.47.95.84,1.55,1.11.6.27,1.24.4,1.93.4.84,0,1.56-.15,2.18-.46.62-.31,1.22-.75,1.8-1.34l.58.56c-.31.3-.63.57-.95.82Z" />
          <path class="st13" d="M156.28,113.01c-.28.72-.68,1.36-1.18,1.91-.51.55-1.12.99-1.84,1.31-.72.32-1.52.49-2.39.49s-1.68-.16-2.39-.49c-.71-.32-1.32-.76-1.83-1.31-.51-.55-.9-1.18-1.17-1.89-.28-.72-.41-1.47-.41-2.26v-.03c0-.79.14-1.55.42-2.27.28-.72.67-1.36,1.18-1.91.51-.55,1.12-.99,1.83-1.31.72-.32,1.52-.49,2.4-.49s1.66.16,2.38.49c.72.33,1.33.76,1.83,1.31.51.55.9,1.18,1.17,1.89.28.72.41,1.47.41,2.26.01.01.01.02,0,.03,0,.79-.14,1.55-.42,2.27ZM155.81,110.74c0-.72-.12-1.39-.37-2.02-.25-.63-.59-1.18-1.02-1.65-.44-.47-.96-.84-1.56-1.12-.61-.28-1.27-.41-1.98-.41s-1.37.14-1.98.4c-.6.27-1.12.64-1.55,1.11-.44.47-.77,1.02-1.02,1.64-.24.63-.36,1.3-.36,2.02v.03c0,.72.12,1.39.37,2.02.25.63.59,1.18,1.02,1.65.44.47.96.84,1.56,1.12.61.28,1.27.41,1.98.41s1.37-.13,1.98-.4c.6-.27,1.12-.64,1.55-1.11.44-.47.77-1.02,1.02-1.64.24-.63.36-1.3.36-2.02v-.03Z" />
          <path class="st13" d="M177.2,116.52l-8.15-10.28v10.28h-.83v-11.57h.81l7.98,10.07v-10.07h.83v11.57h-.64Z" />
          <path class="st13" d="M198.85,116.52l-8.15-10.28v10.28h-.83v-11.57h.81l7.98,10.07v-10.07h.83v11.57h-.64Z" />
          <path class="st13" d="M211.53,116.52v-11.57h8.23v.78h-7.37v4.58h6.63v.78h-6.63v4.66h7.45v.78h-8.31Z" />
          <path class="st13" d="M240.09,115.52c-.33.25-.67.46-1.04.64-.37.18-.77.31-1.2.41-.43.1-.9.15-1.4.15-.83,0-1.59-.15-2.3-.46-.71-.31-1.31-.73-1.83-1.26-.51-.53-.91-1.17-1.2-1.89-.29-.73-.43-1.5-.43-2.33v-.03c0-.82.15-1.59.44-2.31.29-.73.69-1.36,1.21-1.91.51-.55,1.12-.98,1.83-1.29.71-.31,1.48-.47,2.31-.47.52,0,.99.04,1.4.13.42.09.81.21,1.17.38.36.17.69.36,1.01.59.31.23.62.48.92.75l-.61.63c-.25-.24-.52-.47-.79-.68-.28-.21-.57-.39-.88-.54-.31-.15-.66-.27-1.02-.36-.37-.09-.77-.13-1.2-.13-.69,0-1.34.13-1.93.4-.6.26-1.11.63-1.55,1.1-.44.47-.78,1.02-1.02,1.64-.25.63-.37,1.31-.37,2.03v.03c0,.73.13,1.41.38,2.04.25.63.6,1.18,1.03,1.65.44.47.95.84,1.55,1.11.6.27,1.24.4,1.93.4.84,0,1.56-.15,2.18-.46.62-.31,1.22-.75,1.8-1.34l.58.56c-.31.3-.63.57-.95.82Z" />
          <path class="st13" d="M256.06,105.73v10.79h-.86v-10.79h-4.03v-.78h8.93v.78h-4.03Z" />
        </g>
        <path class="st13" d="M125.41,63.84h15.87c5.13,0,8.68,1.34,10.93,3.64,1.97,1.92,2.97,4.51,2.97,7.81v.1c0,5.13-2.73,8.53-6.9,10.31l8.01,11.7h-10.74l-6.76-10.16h-4.07v10.16h-3.66c-3.11,0-5.64-2.52-5.64-5.64v-27.92ZM140.84,79.94c3.16,0,4.98-1.53,4.98-3.98v-.1c0-2.64-1.92-3.98-5.03-3.98h-6.09v8.05h6.14Z" />
        <path class="st13" d="M175.29,63.6h6.44l14.28,33.79h-9.97l-2.44-5.99h-12.94l-2.4,5.99h-9.78l13.3-31.47c.6-1.41,1.98-2.32,3.51-2.32ZM180.91,84.16l-3.74-9.54-3.79,9.54h7.53Z" />
        <path class="st13" d="M199.6,63.84h9.83l8,12.99,8-12.99h9.83v33.55h-9.25v-19.27l-8.58,13.13h-.19l-8.53-13.04v19.17h-3.18c-3.27,0-5.93-2.65-5.93-5.93v-27.63Z" />
        <polygon class="st13" points="251.69 84.83 238.93 63.84 249.53 63.84 256.43 76.06 263.38 63.84 273.78 63.84 261.03 84.69 261.03 97.39 251.69 97.39 251.69 84.83" />
      </g>
      </svg>